<?xml version="1.0" encoding="utf-8"?>
<!-- Generator: Adobe Illustrator 17.0.2, SVG Export Plug-In . SVG Version: 6.00 Build 0)  -->
<!DOCTYPE svg PUBLIC "-//W3C//DTD SVG 1.1 Tiny//EN" "http://www.w3.org/Graphics/SVG/1.1/DTD/svg11-tiny.dtd">
<svg version="1.1" baseProfile="tiny" id="圖層_1"
	 xmlns="http://www.w3.org/2000/svg" xmlns:xlink="http://www.w3.org/1999/xlink" x="0px" y="0px" width="1440px" height="1440px"
	 viewBox="0 0 1440 1440" xml:space="preserve">
<path d="M720,607.5c-16.984,0-34.014-1.469-50.617-4.367l7.738-44.33c28.187,4.92,57.809,4.905,85.99-0.041l7.779,44.322
	C754.201,606.014,737.079,607.5,720,607.5z M573.874,568.436c-29.586-17.093-55.763-39.045-77.803-65.247l34.437-28.967
	c18.666,22.19,40.831,40.779,65.877,55.25L573.874,568.436z M866.353,568.305l-22.546-38.944
	c25.031-14.491,47.178-33.097,65.823-55.301l34.461,28.938C922.075,529.215,895.92,551.188,866.353,568.305z M445.166,415.326
	c-11.686-32.004-17.629-65.651-17.665-100.008l45-0.048c0.031,29.093,5.056,57.563,14.936,84.622L445.166,415.326z M994.683,415.055
	l-42.41-15.392C962.128,372.587,967,344.103,967,315v-1h45v1C1012,349.368,1006.34,383.032,994.683,415.055z M487.261,230.589
	l-42.303-15.346c11.646-32.103,28.72-61.709,50.747-87.998l34.492,28.901C511.556,178.395,497.11,203.441,487.261,230.589z
	 M952.473,229.857c-9.931-27.107-24.448-52.099-43.151-74.284l34.405-29.005c22.099,26.212,39.257,55.755,51,87.809L952.473,229.857
	z M595.961,100.774l-22.588-38.92c29.628-17.195,61.733-28.932,95.423-34.884l7.829,44.313
	C648.149,76.315,621.01,86.237,595.961,100.774z M843.384,100.395c-25.097-14.462-52.271-24.302-80.77-29.244l7.689-44.338
	c33.716,5.847,65.862,17.486,95.549,34.593L843.384,100.395z"/>
<g>
	<path d="M525,1433h-56.885l-6.699-9.817c-8.528-12.495-16.849-25.89-24.733-39.811l39.157-22.176
		c5.235,9.244,10.668,18.221,16.222,26.804H525V1433z"/>
	<path d="M681,1433h-78v-45h78V1433z M759.154,1432.966l-0.082-45c16.479-0.03,30.589-0.076,44.78-0.122
		c10.649-0.035,21.345-0.07,33.119-0.099l0.109,45c-11.762,0.028-22.444,0.063-33.081,0.098
		C789.788,1432.89,775.657,1432.936,759.154,1432.966z"/>
	<path d="M971.869,1432.772l-11.911-0.022c-16.717-0.031-31.585-0.051-44.978-0.061l0.033-45c10.077,0.008,20.99,0.021,32.895,0.039
		c5.398-8.456,10.648-17.379,15.672-26.644l39.559,21.451c-7.744,14.281-16.006,27.873-24.555,40.398L971.869,1432.772z"/>
	<path d="M396.819,1300.026c-11.074-27.528-20.97-56.692-29.412-86.684l43.316-12.193c8.004,28.437,17.372,56.053,27.843,82.082
		L396.819,1300.026z M1040.591,1298.007l-42.334-15.26c9.325-25.867,17.609-53.808,24.625-83.046l43.758,10.5
		C1059.239,1241.044,1050.476,1270.587,1040.591,1298.007z M347,1124.36c-5.34-29.745-9.356-60.176-11.938-90.446l44.837-3.822
		c2.463,28.892,6.296,57.934,11.392,86.317L347,1124.36z M1083.824,1120.726l-44.518-6.572c4.164-28.211,7.308-57.441,9.342-86.879
		l44.893,3.102C1091.427,1060.971,1088.158,1091.368,1083.824,1120.726z M376.498,943.229l-44.996-0.566
		c0.05-4.023,0.151-8.323,0.249-12.48c0.128-5.466,0.249-10.629,0.249-14.683v-30c0-11.412,0.632-22.888,1.88-34.109l44.725,4.973
		C377.54,865.939,377,875.743,377,885.5v30c0,4.581-0.127,10-0.262,15.737C376.644,935.283,376.546,939.405,376.498,943.229z
		 M1051.497,939.996c-0.036-3.287-0.13-6.595-0.229-10.098c-0.132-4.654-0.268-9.468-0.268-14.398v-30
		c0-10.836-0.608-21.691-1.81-32.268l44.713-5.076c1.392,12.254,2.097,24.818,2.097,37.344v30c0,4.294,0.121,8.584,0.25,13.126
		c0.1,3.537,0.203,7.194,0.244,10.864L1051.497,939.996z M400.44,777.845l-40.85-18.875c13.383-28.965,31.354-55.717,53.412-79.513
		l33.002,30.592C427.167,730.371,411.836,753.181,400.44,777.845z M1027.754,774.229c-11.209-25.052-26.252-48.018-44.711-68.259
		l33.25-30.322c21.692,23.788,39.368,50.772,52.537,80.203L1027.754,774.229z M510.224,658.803l-22.626-38.898
		c27.428-15.954,57.115-27.966,88.236-35.705l10.858,43.67C559.701,634.582,533.974,644.989,510.224,658.803z M919.168,655.017
		c-23.678-13.462-49.461-23.312-76.634-29.274l9.645-43.954c31.596,6.933,61.617,18.408,89.231,34.109L919.168,655.017z M759,619
		h-89v-45h89V619z"/>
</g>
<g>
</g>
<g>
</g>
<g>
</g>
<g>
</g>
<g>
</g>
<g>
</g>
<g>
</g>
<g>
</g>
<g>
</g>
<g>
</g>
<g>
</g>
<g>
</g>
<g>
</g>
<g>
</g>
<g>
</g>
</svg>
