<?xml version="1.0" encoding="utf-8"?>
<!-- Generator: Adobe Illustrator 16.0.0, SVG Export Plug-In . SVG Version: 6.00 Build 0)  -->
<!DOCTYPE svg PUBLIC "-//W3C//DTD SVG 1.1//EN" "http://www.w3.org/Graphics/SVG/1.1/DTD/svg11.dtd">
<svg version="1.1" id="Layer_1" xmlns="http://www.w3.org/2000/svg" xmlns:xlink="http://www.w3.org/1999/xlink" x="0px" y="0px"
	 width="66.066px" height="100px" viewBox="0 0 66.066 100" enable-background="new 0 0 66.066 100" xml:space="preserve">
<path fill="#010101" d="M54.138,45.775c-5.646-5.402-11.183-9.4-14.55-10.725c6.781-2.626,11.601-9.198,11.601-16.908
	C51.189,8.124,43.065,0,33.046,0c-10.02,0-18.144,8.124-18.144,18.143c0,7.737,4.853,14.324,11.672,16.934
	c-3.371,1.308-8.927,5.291-14.598,10.685C3.904,53.437-1.326,61.041,0.294,62.745c1.621,1.704,9.478-3.139,17.55-10.812
	c0.658-0.626,1.288-1.251,1.907-1.87c-0.05,0.467-0.142,0.922-0.142,1.402v35.099c0,7.42,6.013,13.437,13.437,13.437
	c7.419,0,13.434-6.017,13.434-13.437V51.464c0-0.488-0.092-0.953-0.145-1.429c0.622,0.625,1.255,1.258,1.917,1.891
	c8.047,7.703,15.89,12.57,17.516,10.871S62.188,53.476,54.138,45.775z"/>
</svg>
